<svg xmlns="http://www.w3.org/2000/svg" viewBox="0 0 512 512"><title>chat-bubbles-handdrawn</title><g style="isolation:isolate"><g id="Layer_1" data-name="Layer 1"><path d="M328.76,182.44c5.8,10.07,124.61-82.29,129-74.66C462,115.2,351,177.68,355.15,184.86c4.66,8.09,97.12-64.22,100.58-58.21,3.27,5.68-72.07,57.59-69.32,62.37,3.27,5.68,87.31-56.79,90-52.1,3.88,6.74-74.46,58.87-70.41,65.89,2.48,4.31,78.47-51,80.87-46.81s-60.29,48.74-58,52.74c3,5.15,56.91-37.68,59-34.12,2.47,4.28-51.85,44.45-49.35,48.8,1.84,3.2,45.18-30.42,47-27.22,1.52,2.64-34.21,33.72-32.56,36.58,1.81,3.14,50.13-33.24,52-30.07,2.64,4.58-60.83,52.87-57.51,58.64,1.89,3.28,44.89-30.75,46.95-27.17,2.43,4.22-47.8,41.91-45.71,45.56s43.86-31.52,46.52-26.92c4.87,8.45-97.61,69.07-94.27,74.87,5,8.7,99.48-66.93,103.52-59.91,5.4,9.38-113.06,76.73-107.84,85.79,4.91,8.53,91.67-61.83,95.46-55.25,4.72,8.19-93.7,68-89.21,75.8,4.4,7.63,89.54-61.18,93.58-54.16" fill="none" stroke="#000" stroke-linecap="round" stroke-linejoin="round" stroke-width="6.97"/><path d="M142.89,141.38C149.59,153,328.58,15.55,336.51,29.32c6.66,11.56-144.09,93.74-138.18,104C204,143.18,353.62,27.26,360.62,39.41c5.71,9.91-142.75,91.35-137.16,101.06,6.37,11.06,153.64-104.6,160.41-92.84,5.93,10.3-134.17,88.83-128.83,98.11,6.69,11.62,145.7-98.18,151.68-87.79,4.38,7.6-126.26,83.91-121.58,92,6.44,11.19,121.4-81.87,126.42-73.16,4.92,8.54-117.23,79.87-112,89C304,173.5,435.94,72.07,442.34,83.18c5.39,9.36-124.8,84-119.29,93.56,6.35,11,115-79.45,120.57-69.78,5.3,9.2-123.84,84.35-119.17,92.46.33.58,2.88-2.3,3.16-1.83.75,1.31,10.53,17.65,11.26,18.92.33.57,1.8-1.73,2.1-1.21.83,1.45-8.72,27.27-7.76,28.95.53.93,4.11-3.44,4.57-2.65,1.41,2.45-22.94,33.7-21.5,36.21.88,1.52,8.37-6.48,9.08-5.25" fill="none" stroke="#000" stroke-linecap="round" stroke-linejoin="round" stroke-width="6.97"/><path d="M166.58,333.55c.48.83,22-14.06,22.59-13.07,1.82,3.16-46.65,41.44-44.36,45.43,3.16,5.49,69.27-46.13,71.88-41.6" fill="none" stroke="#000" stroke-linecap="round" stroke-linejoin="round" stroke-width="6.97"/><path d="M116,58.38c1.95,3.38,40.78-28.91,43.08-24.93,4.33,7.52-105.7,70.48-100.82,79,7.3,12.68,163.57-109.91,170.15-98.48,7,12.09-198.07,114.21-189,129.94C49.94,162.25,267.39-5.72,275,7.5c8.69,15.09-255.32,147.58-246.45,163C37.61,186.21,287.3-3.15,297.62,14.77c14,24.31-295,163.35-283.8,182.8C26.77,220.06,304.54.2,317.12,22,328.71,42.16,1.61,196.87,15.32,220.67c2.29,4,72.31-48.62,75.23-43.54,2.75,4.77-73,55.27-69.14,62,2.19,3.81,52.29-35.22,54.43-31.5,3.59,6.24-69.3,51.37-65.63,57.75,2.45,4.26,51.68-36.09,54.35-31.46,3.43,6-61.29,50.94-58.48,55.82,2.33,4,59.6-40.6,62.24-36,2.17,3.77-46.87,45.44-44.12,50.21,3.06,5.31,57.11-39.86,60-34.75S23.55,320.86,27,326.82c3.11,5.41,60.67-42.07,63.67-36.85S32.5,343.72,34.71,347.56c3.46,6,68.82-46.39,71.65-41.47,3.37,5.85-67.7,50.94-64.59,56.35,3.61,6.26,91.06-59.45,94-54.39,3.34,5.8-97.51,65.47-93.4,72.61,3.63,6.3,80.54-52.86,83.24-48.17,3.84,6.68-77.23,58.74-74.24,63.94,3.34,5.81,78.25-52.12,81.2-47,2.56,4.45-68.78,55.17-65.56,60.76,2.46,4.27,51.73-36.89,54.73-31.68,1.75,3-35.94,40.2-34.12,43.36,8.22,14.27,226.59-157.21,237.85-137.66C333.57,298.31,83,422.85,91.39,437.48c7.5,13,180.7-121.76,188.12-108.88,7.19,12.49-169.44,105.7-162.07,118.5C125.28,460.71,300.8,321,309.42,336c9,15.58-190.75,117.83-183.19,131,10.08,17.5,212.5-140.09,219.89-127.26,9.62,16.71-211.77,125.86-202.47,142C152.48,497,370.79,329.94,379.56,345.18,387.81,359.49,163.1,468.45,172,483.86c8.08,14,198.8-138.38,208.88-120.89,9.47,16.45-197.17,113.55-188,129.5,8,13.86,186.85-124.32,193.84-112.18,5.64,9.79-169.43,101.36-161.41,115.29,9.55,16.58,250-171,261.36-151.26C496.23,360.93,247.18,479.84,258,498.6c7.31,12.69,198.52-131.84,205.84-119.13,8.48,14.72-180.51,106.79-171.6,122.26,6.16,10.7,149.18-102,156-90.26" fill="none" stroke="#000" stroke-linecap="round" stroke-linejoin="round" stroke-width="6.97"/><g opacity="0.8"><path d="M325.19,184.5c4,6.89,115.41-77,119.8-69.34,3.12,5.42-74.84,54.7-70.95,61.46,3.32,5.76,78.27-55.37,82.62-47.82,3.78,6.57-72.22,60.47-69.16,65.77,3.46,6,90-58.25,92.67-53.63,2.84,4.93-67.85,58.7-64.67,64.23,2.79,4.85,68.76-46.65,71.72-41.51,2.37,4.11-58.44,52.85-55,58.74,2,3.43,58.38-39.88,61-35.31,2.48,4.3-49.73,45-47.69,48.59,2.27,3.95,54.58-36.73,56.8-32.87,3,5.13-50.22,50-47.7,54.39,2.06,3.58,45.4-31.66,47.72-27.62,3.19,5.54-72.58,61.14-69.18,67,3.09,5.36,58.58-39.79,61.12-35.37,3.27,5.68-94.4,66-90.52,72.72,4.57,7.93,95.54-65.1,99.78-57.75s-118.16,79.14-113.14,87.84c3.55,6.16,98.74-66.68,102.86-59.53,4.87,8.46-100.84,67.91-96.19,76,3.23,5.61,94.81-62.37,98-56.75" fill="none" stroke="#000" stroke-linecap="round" stroke-linejoin="round" stroke-width="6.97"/><path d="M139.32,143.44c7.15,12.41,194.58-131,202.52-117.21C348.69,38.14,195.39,126,200.46,134.8c6.38,11.07,156.69-103.81,162.36-94,5.77,10-124.3,84.71-118.94,94,6.9,12,139.44-96.45,146.24-84.64,4.34,7.53-130.31,85.71-123.87,96.9,5.07,8.8,139-91.74,143.88-83.27,4.4,7.64-128.84,85.62-124.41,93.3,4.56,7.91,127.52-83.95,131.9-76.34,5.06,8.78-116.46,82.13-112.05,89.77,5.8,10.07,131.63-88.42,136.92-79.24,4.5,7.82-121.4,82.89-115.84,92.55.23.4,6.3-4.16,6.52-3.78,1.11,1.92-9.16,27.54-7.91,29.72.31.54,4.43-3.24,4.72-2.73.93,1.61,7.79,20.3,8.59,21.69.44.76,12-8,12.45-7.2,1.89,3.28-37.7,42.95-35.38,47,.53.92,28.4-17.94,29.05-16.82" fill="none" stroke="#000" stroke-linecap="round" stroke-linejoin="round" stroke-width="6.97"/><path d="M163,335.62c.51.89,12.82-8.74,13.39-7.75" fill="none" stroke="#000" stroke-linecap="round" stroke-linejoin="round" stroke-width="6.97"/><path d="M112.38,60.45c2.06,3.58,49.68-34.07,52-30.08,4.83,8.39-117,80.31-112.38,88.36C60.52,133.56,228.26,3.64,233.9,13.43,242.6,28.54,19.17,137.55,29.63,155.7,37.77,169.83,259.68,3.27,268,17.74c10.2,17.71-250.76,141.74-239.79,160.8C39.58,198.26,291.7-5.67,305.4,18.12c14,24.35-294.15,172-283.57,190.37C37,234.89,323.68,5.64,335.85,26.76,348.53,48.79,1.17,216.68,13.48,238,16,242.37,69.11,201.36,71,204.73c2.88,5-53.07,48.95-51,52.49,2.34,4.06,44.77-31.8,47.31-27.38,3.39,5.89-61.67,50.22-58.7,55.39,2.17,3.78,54.47-37.86,57.2-33.11,2,3.49-41.91,42.42-39.74,46.2,2,3.41,55.93-38.47,58.57-33.9,3.4,5.9-68.82,59.42-65.75,64.76,2.5,4.34,66.78-46.63,70.23-40.65,2.93,5.08-59.57,47.63-56.28,53.33,3.69,6.4,77.75-52.14,80.84-46.78,3.87,6.72-84.24,65.38-80.44,72,3.65,6.33,83.35-55,86.28-49.94C123.06,323.22,52,373.64,55,378.83c2.75,4.78,74-49.41,76.81-44.45s-68.57,57.56-66,62c3.39,5.88,51.47-36.51,54.37-31.47,2.62,4.55-57,52-54.11,57,5.75,10,170.75-111.45,176.2-102C250.26,333.88,70.92,426,76.9,436.39c6.63,11.52,198-128.92,204.21-118.19,7,12.17-192.13,121.42-185.48,133,8,13.94,194.32-131.35,202.48-117.18s-181.79,111.14-173.26,126c9.22,16,211.45-143.31,220.49-127.61,7.79,13.52-207.62,124.41-198.15,140.84,7.1,12.33,206.21-136.29,213.53-123.58,7.65,13.28-197.61,115.31-188.13,131.77C182.89,499.27,378,341.05,387.27,357.12,396,372.33,193,475.72,201.48,490.45c7.78,13.5,178-125.43,187.69-108.62,8.41,14.61-179,106.51-170.14,121.82,10.2,17.71,254.32-170.35,264.32-153S262.71,483.14,272.1,499.44c8.09,14.05,179-125.69,188.58-109.14,4.66,8.1-139.5,90.53-133.55,100.86,4.13,7.17,96.25-66.82,101-58.48" fill="none" stroke="#000" stroke-linecap="round" stroke-linejoin="round" stroke-width="6.97"/></g><g opacity="0.7" style="mix-blend-mode:multiply"><path d="M257.95,13.52c-5.16,0-10.23-.6-15.32-.28S232.55,15,227.49,15.63s-10.77-2.3-15.79-1.35-9.77,3.74-14.72,5-10.2,1.87-15.06,3.46-9.91,3-14.66,4.93-8.14,7-12.77,9.21-8.88,4.9-13.36,7.38-11.56.66-15.88,3.41S119.17,57,115,60.06s-7.22,7.2-11.17,10.48S96.29,77.18,92.55,80.7,83,85.52,79.49,89.27,75.13,99,71.86,102.95s-9.95,5.18-13,9.34-2.23,10.83-5,15.17S45.45,134.28,43,138.79s-1.22,10.8-3.41,15.46S29,160.83,27.07,165.62s-1.46,10.53-3,15.44-2.24,10.08-3.51,15.08-2.55,10-3.51,15-1.86,10.12-2.5,15.24S13.27,236.64,13,241.8s.93,10.28.93,15.45,2.82,10.1,3.14,15.2S14.84,282.9,15.47,288s2.76,9.93,3.71,15,3.7,9.56,5,14.52-1.77,11.16-.2,16,2.18,10.28,4.07,15,6.4,8.51,8.58,13.15,2.74,10.21,5.2,14.7,3.88,9.84,6.63,14.17,11,5,14,9.11,2.54,11,5.81,14.93,10,4.8,13.51,8.54,6.63,7.64,10.37,11.16,7.43,6.86,11.38,10.14,4.91,10.42,9.06,13.45,9.17,5,13.5,7.74,9.13,4.83,13.63,7.32,10.72,1.36,15.37,3.56,6.75,10.23,11.53,12.13,10.13,2.62,15,4.21,11.18-1.89,16.17-.61,8.81,7.48,13.87,8.44,10.92-3.8,16-3.16,9.75,4.61,14.9,4.93,10.23-.37,15.39-.37,10.22-.64,15.31-1,9.89-3.19,14.95-3.83,10.86,3.33,15.88,2.37,10.22-1.84,15.16-3.11,9.16-5.36,14-6.94,10.24-1.81,15-3.7,7.84-7.52,12.46-9.71,10.72-1.35,15.2-3.82,7.33-7.6,11.65-10.36,9.77-3.69,13.92-6.71,6.77-7.86,10.71-11.13,11.72-2.24,15.46-5.76,6.61-8.13,10.13-11.88,6.31-8.25,9.58-12.21,6-8.41,9-12.57,2.69-10.48,5.45-14.82,8.06-7,10.54-11.53S475.8,365.7,478,361s6.3-8.42,8.19-13.21,5.22-9.12,6.8-14-1.89-11.21-.62-16.21,2.57-9.76,3.53-14.83,2.78-9.81,3.42-14.93,3.42-10,3.74-15.11-3-10.29-3-15.46,2.58-10.32,2.26-15.41-2.07-10.12-2.7-15.19-3.57-9.72-4.52-14.75,1.26-10.72,0-15.68-2.72-9.93-4.3-14.8-.42-10.9-2.3-15.66-4.94-9.25-7.12-13.89-6-8.6-8.42-13.09S467,130.35,464.25,126s-2.86-10.58-5.88-14.74-6.15-8.47-9.42-12.42-10.3-4.66-13.81-8.41-4.92-9.59-8.66-13.11-8-6.54-12-9.82S404.18,64.23,400,61.2s-6.8-8-11.13-10.81-7.11-8.27-11.61-10.75-9.84-3.57-14.49-5.76-11.18.2-16-1.7-7.42-9.61-12.31-11.2-10-2.94-15-4.22S309,16.5,304,15.54s-9.78-4.43-14.9-5.07-10.49.81-15.64.49S263.11,13.52,257.95,13.52Zm-70,311.19c-7.08-.41-11.17.31-15.71,5.81-3,3.76-5.32,8.11-8.4,11.78s-9.09,4.89-12.22,8.52-5,8.38-8.16,12-6.8,6.53-9.92,10.17c-6.94,4.13-2.9-1-2.9-3.78,0-5.38-3.47-10.68-3.51-16s-.54-10.7-.49-16,5.35-10.51,5.6-15.85c.21-8.41-5.61-12.64-13.65-16.09-4.3-2-9.49-3.5-13.36-6.26a104.35,104.35,0,0,1-11.36-9.33c-3.43-3.3-4.43-9.13-7.44-12.8-3.46-4.24-9.32-7-11.79-11.54-2.61-4.77-.6-11.6-2.11-16.56-1.57-5.14-6.88-9.76-7.26-15s3.45-10.76,4.26-16-1.57-11.65.39-16.66c1.88-4.83,10.45-6.39,13.4-11,2.79-4.32,4-9.61,7.69-13.6,3.6-3.82,6.74-7.86,10.65-11.09a121.91,121.91,0,0,1,12.56-8.9,126.58,126.58,0,0,1,13.52-7.32,137.59,137.59,0,0,1,14.27-5.7c4.83-1.67,9.38-4.45,14.43-5.65s9.69-4.8,14.83-5.57,10.46,1.69,15.39,1.31,10.08-2,15-2S212,130.15,217,130.54s9.53,5.63,14.44,6.46,9.41,3.1,14.23,4.41,10.3.29,15,2.09,8.33,5.64,12.83,7.93,7.79,5.91,12.06,8.65,12,.3,16,3.45,4.69,9.75,8.41,13.27c3.63,4.33,10.4,6,13.05,10.32a92.27,92.27,0,0,1,6.94,15A78.39,78.39,0,0,1,334.2,218c.86,5.45-4,11-4.39,16.13-.44,5.4-.24,10.42-1.86,15.45s-3.14,10.05-5.76,14.68-2.69,11.39-6.09,15.48c-3.13,3.76-11.15,2.68-14.66,5.87s-6.36,6.89-10.29,9.64-5.37,9.6-9.61,11.93-10.78-.28-15.22,1.7c-5,2.1-8.24,9.2-13.35,10.76s-11.42-.49-16.68.55-10.52,2.68-15.89,3.21-10.79,1.29-16.2,1.32S193.32,325.15,187.9,324.71ZM408.83,320c-7.35,4.13-9.61,7.21-9.13,14.92.17,5.11,1.19,10.22,1.18,15.42,0,4.94-3.85,10-3.9,15.35,0,4.84,1.79,9.7,1.79,15.15-4-4.48-6.81-9.22-10.46-13.31-3.93-4.41-7.44-8.85-11.09-13-3.8-4.36-10-6.48-13.6-10.88-4.53-5.09-7.27-6.31-14.76-5.76-5.7.45-11.44-4.61-17.08-4.85s-11.73,3.62-17.32,2.66-11.73-1-17.18-2.68A133.71,133.71,0,0,1,281,326.79c-2.81-1.24-4.91-4.8-6.63-8.94,4.48-2.11,7.25-7.21,11.49-9.56s10.82-1,14.83-3.77,5.23-9.18,8.89-12.38,9.63-4,12.8-7.74,2.65-9.79,5.17-14.07,10.82-5.55,12.58-10.27c1.66-4.44.85-10.15,1.83-15.17,1.14-5.59.89-11.33.83-16.74a71.7,71.7,0,0,0-1.94-16.56,73.51,73.51,0,0,0-5.78-15.67,79.15,79.15,0,0,0-8.87-13.47c5.18-1.82,9.65-3.56,14.81-3.79s11.05-2.43,16.3-1.67,10,4.8,15.17,5.86c5,1.12,10.3,1.18,15,2.75s10.43,2,14.9,4.17,6.77,8.78,10.91,11.58,7.07,6.72,10.76,10.18,8.82,5.17,11.95,9.24c3,3.87,3.88,8.89,6.4,13.43,1.33,4.89.68,9.36,1.29,13.91.67,5,7.31,9.53,7.08,14.14-.24,5-5.5,9.16-6.8,13.69s.79,11-1.67,15.2c-2.37,4-6.06,8-9.49,11.68a88.67,88.67,0,0,1-11.15,9.81C417.95,315.38,413.25,317.45,408.83,320Z" fill="none" stroke="#000" stroke-linecap="round" stroke-linejoin="round" stroke-width="9.88"/></g><g opacity="0.8" style="mix-blend-mode:multiply"><path d="M257.95,11c-6.15,0-12.11,3-18.15,3.49s-12.39-1.11-18.38-.22-12.91-1.54-18.83-.19S192.84,25,187,26.83s-13.3-1.33-19,.9-9.36,8.92-14.84,11.57-12.38,2.45-17.66,5.51-12.39,3.48-17.43,6.93-8.44,9.4-13.2,13.22-9.56,7.71-14,11.87-8,9.33-12.12,13.82-6.72,10.22-10.53,15-10.18,7.62-13.62,12.68S46,127.53,43,132.84s-.73,13.48-3.39,19-10,9-12.24,14.68,2.34,13.71.53,19.58S17.74,196,16.38,202s-2.89,12.11-3.8,18.2,3.19,12.7,2.73,18.84-4.54,12.06-4.54,18.23,6.41,12,6.86,18.06.37,12.06,1.27,18.07-5.42,13.57-4.08,19.5,5.75,11.4,7.54,17.22,9.41,9.58,11.64,15.26,2.43,12.06,5.07,17.55,1.17,13.29,4.22,18.57,7.06,10.25,10.5,15.29,7.41,9.93,11.22,14.71,11.26,6.4,15.41,10.88,9.44,7.49,13.91,11.65,4.55,13.36,9.32,17.18,10.22,7,15.27,10.46,9.8,7.71,15.09,10.78,13.55.47,19.06,3.13,8.83,10.19,14.53,12.43,13.28-1.18,19.14.63S198,493,204,494.33s11.74,2.53,17.81,3.44,11.61,5.59,17.74,6,12.28-2.71,18.43-2.71,12.51,4.75,18.55,4.3,12.15-3.18,18.15-4.08,12-2.93,17.9-4.28,12-2.65,17.82-4.45,12.23-2.46,17.89-4.69,12.38-2.84,17.87-5.49,9.16-9.23,14.43-12.29,11.17-5.34,16.21-8.78,6.2-12,11-15.82,10.86-5.74,15.33-9.9S429.85,425.49,434,421s9.57-7.53,13.38-12.31,11.45-6.72,14.9-11.78,7.34-10.07,10.4-15.37,3-12.35,5.68-17.88,8.7-9.67,10.94-15.38-1.89-13.63-.08-19.51,5.57-11,6.93-17-1.49-12.5-.58-18.59,4-11.58,4.47-17.72,1.42-12,1.42-18.19,5.16-12.59,4.71-18.65-6.95-11.67-7.84-17.68.27-12.5-1.07-18.43-5-11.33-6.76-17.15-2-12.24-4.23-17.92-2.18-12.57-4.83-18.06-5-11.54-8-16.82-11-7.63-14.46-12.67-2.84-13.23-6.65-18S441.41,95,437.26,90.47s-8.28-9-12.75-13.17-10.67-6.19-15.45-10-8.47-8.9-13.52-12.35-8.7-9.23-14-12.3-13.31-.84-18.82-3.5S352.7,32,347,29.79s-10.34-7.48-16.2-9.29-12.62-.12-18.6-1.48-11.6-4.11-17.67-5-11.87-4.85-18-5.31S264.1,11,257.95,11ZM188.07,322.23c-7.08-.41-10.49,3.47-15,9-4,5-9.84,8.52-14,13.4s-11.11,7.33-15.29,12.16S141,372.4,136.9,377.25c-6.94,4.13-6.64-5.27-6.64-8,0-5.38-4.75-10.67-4.79-16s3.35-10.69,3.41-16,3.62-10.51,3.87-15.86c.21-8.41-5.24-14.7-13.28-18.14a81.91,81.91,0,0,1-17.64-11.67c-5.45-4.57-11.24-8.91-15.77-14.41-4.06-5-9.07-9.42-11.77-14.75-2.87-5.67-1.79-12.77-3.13-18.66-1.38-6.1.26-11.86.5-18S67.19,212.66,69,206.68c1.78-5.77,9.15-9.19,12.42-14.64,3.08-5.12,1.37-14.35,5.75-19s13.68-3.63,18.45-7.37a117.29,117.29,0,0,1,15.21-9.72c5.38-3,8.78-10,14.54-12.24s12.72-.44,18.76-2,10.82-8.82,17-9.75,12.89-.84,19-1.21c6.34-.38,12.62,7.15,18.8,7.37s12.48-2.1,18.62-1.2,13.72-3.64,19.74-2,11.57,6,17.38,8.41,9.12,9.53,14.62,12.68c5.34,3.06,10.71,5.68,15.83,9.52a159,159,0,0,1,14.29,11.65c4.28,5.1,11.55,7.5,14.48,12.53,3.34,5.74,7.63,11.47,9.38,17.05,2,6.25-3.71,13.76-3.48,19.72.25,6.39.31,12-1.13,17.95-1.47,6.09-4.5,11-7.39,16.45S320,275,316.07,279.74c-4.2,5-12.69,5.63-17.56,9.67s-7,12.46-12.5,15.74-11.95,5.35-17.88,8a168.2,168.2,0,0,1-19.42,6.63c-6.53,1.81-14-.74-20.63.24S215,325,208.26,325.15,194.85,322.78,188.07,322.23Zm219.55-4.44c-7.35,4.13-7.3,9.32-6.82,17,.25,7.58-2,15.15-2.08,23.16-.06,7.12-2.67,11.85-2.67,20.27-4-4.48-8.14-3-11.79-7.13-3.93-4.4-3.65-12.26-7.3-16.45-3.8-4.36-11-5.64-14.58-10-4.53-5.09-6.2-9.63-13.69-9.08-5.7.45-11.25-2.88-16.89-3.12s-11.38,1.94-17,1a127,127,0,0,1-16.42-4.13c-5.37-1.67-11.07-2.61-16.28-5-2.81-1.24-8-3.34-9.73-7.48,5.24-2.46,12.89-3,17.79-5.76s11.27-4.28,15.82-7.62,5.26-11.63,9.26-15.66,11.84-5.08,15.05-9.86-.32-12.85,1.9-18.3c2.07-5.1,10.37-8.45,11.53-14.34a85.44,85.44,0,0,0,2.06-17.13c-.06-5.6-5.51-10.7-6.85-16.06s.29-11.94-2.28-17c-2.44-4.78-11.26-9.27-14.83-13.77,5.18-1.82,13.9-4.8,19.06-5s10,7.79,15.26,8.55,10.7-1,15.86,0c6,1.35,13.6-2.68,19.16-.68,5.76,2.08,10.73,6.88,15.94,9.76s7.45,10.3,12.11,14.14,9,7.12,12.93,11.88a92.07,92.07,0,0,1,10,14.25c1.9,7,7.51,12.71,7.93,19,.47,7.13,1.5,15,0,21.26-1.55,6.6-10.55,10.32-14.3,16.06-3.5,5.35-7,10.3-12.5,15C418.58,309.61,413.93,314.22,407.62,317.8Z" fill="none" stroke="#000" stroke-linecap="round" stroke-linejoin="round" stroke-width="6.59"/></g></g></g></svg>